<svg xmlns="http://www.w3.org/2000/svg" viewBox="0 0 64 64">
  <rect width="64" height="64" rx="14" fill="#689d6a"/>
  <svg x="9" y="12" width="46" height="36" viewBox="0 0 220 172" overflow="visible">
    <path d="M44,138 C12,138 8,99 38,93 C26,60 64,44 84,64 C94,34 138,34 150,62 C178,46 210,68 194,96 C218,102 212,138 180,138 Z" fill="#fbf1c7" stroke="#3c3836" stroke-width="6" stroke-linejoin="round"/>
  </svg>
  <svg x="16.5" y="24" width="31" height="19" viewBox="0 0 16 10" shape-rendering="crispEdges"><rect x="3" y="0" width="1" height="1" fill="#3c3836"/><rect x="12" y="0" width="1" height="1" fill="#3c3836"/><rect x="2" y="1" width="1" height="1" fill="#3c3836"/><rect x="3" y="1" width="1" height="1" fill="#d65d0e"/><rect x="4" y="1" width="1" height="1" fill="#3c3836"/><rect x="11" y="1" width="1" height="1" fill="#3c3836"/><rect x="12" y="1" width="1" height="1" fill="#d65d0e"/><rect x="13" y="1" width="1" height="1" fill="#3c3836"/><rect x="2" y="2" width="1" height="1" fill="#3c3836"/><rect x="3" y="2" width="1" height="1" fill="#d65d0e"/><rect x="4" y="2" width="1" height="1" fill="#d65d0e"/><rect x="5" y="2" width="1" height="1" fill="#3c3836"/><rect x="6" y="2" width="1" height="1" fill="#3c3836"/><rect x="7" y="2" width="1" height="1" fill="#3c3836"/><rect x="8" y="2" width="1" height="1" fill="#3c3836"/><rect x="9" y="2" width="1" height="1" fill="#3c3836"/><rect x="10" y="2" width="1" height="1" fill="#3c3836"/><rect x="11" y="2" width="1" height="1" fill="#d65d0e"/><rect x="12" y="2" width="1" height="1" fill="#d65d0e"/><rect x="13" y="2" width="1" height="1" fill="#3c3836"/><rect x="1" y="3" width="1" height="1" fill="#3c3836"/><rect x="2" y="3" width="1" height="1" fill="#d65d0e"/><rect x="3" y="3" width="1" height="1" fill="#d65d0e"/><rect x="4" y="3" width="1" height="1" fill="#d65d0e"/><rect x="5" y="3" width="1" height="1" fill="#d65d0e"/><rect x="6" y="3" width="1" height="1" fill="#d65d0e"/><rect x="7" y="3" width="1" height="1" fill="#d65d0e"/><rect x="8" y="3" width="1" height="1" fill="#d65d0e"/><rect x="9" y="3" width="1" height="1" fill="#d65d0e"/><rect x="10" y="3" width="1" height="1" fill="#d65d0e"/><rect x="11" y="3" width="1" height="1" fill="#d65d0e"/><rect x="12" y="3" width="1" height="1" fill="#d65d0e"/><rect x="13" y="3" width="1" height="1" fill="#d65d0e"/><rect x="14" y="3" width="1" height="1" fill="#3c3836"/><rect x="0" y="4" width="1" height="1" fill="#3c3836"/><rect x="1" y="4" width="1" height="1" fill="#d65d0e"/><rect x="2" y="4" width="1" height="1" fill="#d65d0e"/><rect x="3" y="4" width="1" height="1" fill="#d65d0e"/><rect x="4" y="4" width="1" height="1" fill="#d65d0e"/><rect x="5" y="4" width="1" height="1" fill="#d65d0e"/><rect x="6" y="4" width="1" height="1" fill="#d65d0e"/><rect x="7" y="4" width="1" height="1" fill="#d65d0e"/><rect x="8" y="4" width="1" height="1" fill="#d65d0e"/><rect x="9" y="4" width="1" height="1" fill="#d65d0e"/><rect x="10" y="4" width="1" height="1" fill="#d65d0e"/><rect x="11" y="4" width="1" height="1" fill="#d65d0e"/><rect x="12" y="4" width="1" height="1" fill="#d65d0e"/><rect x="13" y="4" width="1" height="1" fill="#d65d0e"/><rect x="14" y="4" width="1" height="1" fill="#d65d0e"/><rect x="15" y="4" width="1" height="1" fill="#3c3836"/><rect x="0" y="5" width="1" height="1" fill="#3c3836"/><rect x="1" y="5" width="1" height="1" fill="#d65d0e"/><rect x="2" y="5" width="1" height="1" fill="#3c3836"/><rect x="3" y="5" width="1" height="1" fill="#3c3836"/><rect x="4" y="5" width="1" height="1" fill="#d65d0e"/><rect x="5" y="5" width="1" height="1" fill="#d65d0e"/><rect x="6" y="5" width="1" height="1" fill="#d65d0e"/><rect x="7" y="5" width="1" height="1" fill="#d65d0e"/><rect x="8" y="5" width="1" height="1" fill="#d65d0e"/><rect x="9" y="5" width="1" height="1" fill="#d65d0e"/><rect x="10" y="5" width="1" height="1" fill="#d65d0e"/><rect x="11" y="5" width="1" height="1" fill="#d3869b"/><rect x="12" y="5" width="1" height="1" fill="#d65d0e"/><rect x="13" y="5" width="1" height="1" fill="#d65d0e"/><rect x="14" y="5" width="1" height="1" fill="#d65d0e"/><rect x="15" y="5" width="1" height="1" fill="#3c3836"/><rect x="0" y="6" width="1" height="1" fill="#3c3836"/><rect x="1" y="6" width="1" height="1" fill="#d65d0e"/><rect x="2" y="6" width="1" height="1" fill="#d65d0e"/><rect x="3" y="6" width="1" height="1" fill="#d65d0e"/><rect x="4" y="6" width="1" height="1" fill="#d65d0e"/><rect x="5" y="6" width="1" height="1" fill="#d65d0e"/><rect x="6" y="6" width="1" height="1" fill="#d65d0e"/><rect x="7" y="6" width="1" height="1" fill="#d65d0e"/><rect x="8" y="6" width="1" height="1" fill="#d65d0e"/><rect x="9" y="6" width="1" height="1" fill="#d65d0e"/><rect x="10" y="6" width="1" height="1" fill="#d65d0e"/><rect x="11" y="6" width="1" height="1" fill="#d65d0e"/><rect x="12" y="6" width="1" height="1" fill="#d65d0e"/><rect x="13" y="6" width="1" height="1" fill="#d65d0e"/><rect x="14" y="6" width="1" height="1" fill="#d65d0e"/><rect x="15" y="6" width="1" height="1" fill="#3c3836"/><rect x="0" y="7" width="1" height="1" fill="#3c3836"/><rect x="1" y="7" width="1" height="1" fill="#d65d0e"/><rect x="2" y="7" width="1" height="1" fill="#fe8019"/><rect x="3" y="7" width="1" height="1" fill="#fe8019"/><rect x="4" y="7" width="1" height="1" fill="#d65d0e"/><rect x="5" y="7" width="1" height="1" fill="#d65d0e"/><rect x="6" y="7" width="1" height="1" fill="#d65d0e"/><rect x="7" y="7" width="1" height="1" fill="#d65d0e"/><rect x="8" y="7" width="1" height="1" fill="#d65d0e"/><rect x="9" y="7" width="1" height="1" fill="#d65d0e"/><rect x="10" y="7" width="1" height="1" fill="#d65d0e"/><rect x="11" y="7" width="1" height="1" fill="#d65d0e"/><rect x="12" y="7" width="1" height="1" fill="#fe8019"/><rect x="13" y="7" width="1" height="1" fill="#fe8019"/><rect x="14" y="7" width="1" height="1" fill="#d65d0e"/><rect x="15" y="7" width="1" height="1" fill="#3c3836"/><rect x="1" y="8" width="1" height="1" fill="#3c3836"/><rect x="2" y="8" width="1" height="1" fill="#d65d0e"/><rect x="3" y="8" width="1" height="1" fill="#fe8019"/><rect x="4" y="8" width="1" height="1" fill="#fe8019"/><rect x="5" y="8" width="1" height="1" fill="#fe8019"/><rect x="6" y="8" width="1" height="1" fill="#fe8019"/><rect x="7" y="8" width="1" height="1" fill="#fe8019"/><rect x="8" y="8" width="1" height="1" fill="#fe8019"/><rect x="9" y="8" width="1" height="1" fill="#fe8019"/><rect x="10" y="8" width="1" height="1" fill="#fe8019"/><rect x="11" y="8" width="1" height="1" fill="#fe8019"/><rect x="12" y="8" width="1" height="1" fill="#fe8019"/><rect x="13" y="8" width="1" height="1" fill="#d65d0e"/><rect x="14" y="8" width="1" height="1" fill="#3c3836"/><rect x="2" y="9" width="1" height="1" fill="#3c3836"/><rect x="3" y="9" width="1" height="1" fill="#3c3836"/><rect x="4" y="9" width="1" height="1" fill="#3c3836"/><rect x="5" y="9" width="1" height="1" fill="#3c3836"/><rect x="6" y="9" width="1" height="1" fill="#3c3836"/><rect x="7" y="9" width="1" height="1" fill="#3c3836"/><rect x="8" y="9" width="1" height="1" fill="#3c3836"/><rect x="9" y="9" width="1" height="1" fill="#3c3836"/><rect x="10" y="9" width="1" height="1" fill="#3c3836"/><rect x="11" y="9" width="1" height="1" fill="#3c3836"/><rect x="12" y="9" width="1" height="1" fill="#3c3836"/><rect x="13" y="9" width="1" height="1" fill="#3c3836"/></svg>
</svg>
